<svg xmlns="http://www.w3.org/2000/svg" width="398" height="36" viewBox="0 0 398 36" fill="none"><g clip-path="url(#clip0_95_7184)"><rect x="0.108398" y="16" width="4" height="4" rx="2" fill="#B19B87"></rect><rect x="10.1084" y="16" width="4" height="4" rx="2" fill="#B19B87"></rect><rect x="20.1084" y="16" width="4" height="4" rx="2" fill="#B19B87"></rect><rect x="30.1084" y="16" width="4" height="4" rx="2" fill="#B19B87"></rect><rect x="40.1084" y="16" width="4" height="4" rx="2" fill="#B19B87"></rect><rect x="50.1084" y="16" width="4" height="4" rx="2" fill="#B19B87"></rect><rect x="60.1084" y="16" width="4" height="4" rx="2" fill="#B19B87"></rect><rect x="70.1084" y="16" width="4" height="4" rx="2" fill="#B19B87"></rect><rect x="80.1084" y="16" width="4" height="4" rx="2" fill="#B19B87"></rect><rect x="90.1084" y="16" width="4" height="4" rx="2" fill="#B19B87"></rect><rect x="100.108" y="16" width="4" height="4" rx="2" fill="#B19B87"></rect><rect x="110.108" y="16" width="4" height="4" rx="2" fill="#B19B87"></rect><rect x="120.108" y="16" width="4" height="4" rx="2" fill="#B19B87"></rect><rect x="130.108" y="16" width="4" height="4" rx="2" fill="#B19B87"></rect><rect x="140.108" y="16" width="4" height="4" rx="2" fill="#B19B87"></rect><rect x="150.108" y="16" width="4" height="4" rx="2" fill="#B19B87"></rect><rect x="160.108" y="16" width="4" height="4" rx="2" fill="#B19B87"></rect><rect x="170.108" y="16" width="4" height="4" rx="2" fill="#B19B87"></rect><g clip-path="url(#clip1_95_7184)"><mask id="mask0_95_7184" style="mask-type:luminance" maskUnits="userSpaceOnUse" x="190" y="0" width="18" height="36"><path d="M207.891 0H190.108V36H207.891V0Z" fill="white"></path></mask><g mask="url(#mask0_95_7184)"><path d="M199.744 0.433959C199.744 -0.0971424 199.709 0.00826692 199.495 0.00826692C199.282 0.00826692 199.274 0.00826688 199.274 0.610992C199.275 10.0695 190.108 8.75859 190.108 18.24C190.108 22.9159 193.438 27.285 196.556 27.285C197.583 27.285 197.69 27.0012 197.69 26.4349C197.69 25.8687 197.598 25.5565 197.557 25.2754C197.441 24.4511 197.09 24.77 196.838 24.77C193.757 24.77 190.852 20.6604 190.852 18.4981C190.852 16.6656 193.438 13.2561 195.988 11.1317C198.96 8.65454 199.744 6.56121 199.744 0.433959Z" fill="#B19B87"></path></g><mask id="mask1_95_7184" style="mask-type:luminance" maskUnits="userSpaceOnUse" x="190" y="0" width="18" height="36"><path d="M207.891 0H190.108V36H207.891V0Z" fill="white"></path></mask><g mask="url(#mask1_95_7184)"><path d="M207.891 18.7831C207.891 27.9227 200.061 24.4861 200.061 31.4647C200.061 33.058 199.744 35.9986 199.497 35.9986C199.249 35.9986 199.497 31.8188 199.497 30.366C199.497 26.328 199.745 25.1226 203.287 23.2806C204.497 22.6522 207.078 20.9778 207.078 19.1007C207.078 17.2236 205.059 15.9479 203.287 15.2398C201.516 14.5316 200.064 13.6451 200.064 13.0789C200.064 13.0789 199.107 14.7087 198.47 15.4519C197.832 16.1952 196.238 17.9318 196.238 18.7818C196.238 19.6318 198.205 20.8359 199.276 20.8359C200.348 20.8359 201.198 19.0291 201.517 19.0291C201.836 19.0291 201.729 20.021 201.729 20.021C201.729 21.1548 201.233 23.1387 199.037 23.1387C196.841 23.1387 195.318 21.7211 195.318 18.675C195.318 15.629 196.983 14.0343 197.728 13.0775C198.472 12.1207 200.066 9.46387 200.491 9.46387C200.917 9.46387 200.81 10.0666 200.81 10.3855C200.81 11.7315 202.955 11.9815 204.282 12.5464C206.194 13.3613 207.896 14.6357 207.896 18.7818" fill="#B19B87"></path></g></g><rect x="223.891" y="16" width="4" height="4" rx="2" fill="#B19B87"></rect><rect x="233.891" y="16" width="4" height="4" rx="2" fill="#B19B87"></rect><rect x="243.891" y="16" width="4" height="4" rx="2" fill="#B19B87"></rect><rect x="253.891" y="16" width="4" height="4" rx="2" fill="#B19B87"></rect><rect x="263.891" y="16" width="4" height="4" rx="2" fill="#B19B87"></rect><rect x="273.891" y="16" width="4" height="4" rx="2" fill="#B19B87"></rect><rect x="283.891" y="16" width="4" height="4" rx="2" fill="#B19B87"></rect><rect x="293.891" y="16" width="4" height="4" rx="2" fill="#B19B87"></rect><rect x="303.891" y="16" width="4" height="4" rx="2" fill="#B19B87"></rect><rect x="313.891" y="16" width="4" height="4" rx="2" fill="#B19B87"></rect><rect x="323.891" y="16" width="4" height="4" rx="2" fill="#B19B87"></rect><rect x="333.891" y="16" width="4" height="4" rx="2" fill="#B19B87"></rect><rect x="343.891" y="16" width="4" height="4" rx="2" fill="#B19B87"></rect><rect x="353.891" y="16" width="4" height="4" rx="2" fill="#B19B87"></rect><rect x="363.891" y="16" width="4" height="4" rx="2" fill="#B19B87"></rect><rect x="373.891" y="16" width="4" height="4" rx="2" fill="#B19B87"></rect><rect x="383.891" y="16" width="4" height="4" rx="2" fill="#B19B87"></rect><rect x="393.891" y="16" width="4" height="4" rx="2" fill="#B19B87"></rect></g><defs><clipPath id="clip0_95_7184"><rect width="397.783" height="36" fill="white" transform="translate(0.108398)"></rect></clipPath><clipPath id="clip1_95_7184"><rect width="17.7831" height="36" fill="white" transform="translate(190.108)"></rect></clipPath></defs></svg>